<?xml version="1.0" encoding="UTF-8"?>
<!DOCTYPE svg PUBLIC "-//W3C//DTD SVG 1.1//EN" "http://www.w3.org/Graphics/SVG/1.1/DTD/svg11.dtd">
<!-- Creator: CorelDRAW 2017 -->
<svg xmlns="http://www.w3.org/2000/svg" xml:space="preserve" width="182.285mm" height="128mm" version="1.1" style="shape-rendering:geometricPrecision; text-rendering:geometricPrecision; image-rendering:optimizeQuality; fill-rule:evenodd; clip-rule:evenodd"
viewBox="0 0 18228.5 12800"
 xmlns:xlink="http://www.w3.org/1999/xlink">
 <defs>
  <style type="text/css">
   <![CDATA[
    .str0 {stroke:#FEFEFE;stroke-width:242.15;stroke-linecap:round;stroke-linejoin:round;stroke-miterlimit:22.9256}
    .fil2 {fill:none;fill-rule:nonzero}
    .fil4 {fill:#0074B3}
    .fil0 {fill:#6C9530}
    .fil1 {fill:#6C9530}
    .fil5 {fill:#9B1A14}
    .fil6 {fill:#F9B500}
    .fil3 {fill:#373435;fill-rule:nonzero}
    .fil7 {fill:#6C9530;fill-rule:nonzero}
   ]]>
  </style>
 </defs>
 <g id="Capa_x0020_1">
  <metadata id="CorelCorpID_0Corel-Layer"/>
  <g id="_2057429680800">
   <path class="fil0" d="M17752.34 10422.94c-65.57,-589.28 -3.27,-691.74 -246.89,-1308.56 -29.98,569.28 378.44,2360.49 -755.18,2709.12 426.87,-449.38 622.84,-673.32 639.13,-1285.59 -317.72,-331.69 -983.4,-616.51 -1277.31,-916.67 -644.94,-658.73 -211.54,-980.21 -457.49,-1733.43 1887.07,-445.12 3372.84,1306.48 2097.74,2535.13z"/>
   <path class="fil0" d="M5598.69 3819.23c-580.81,-119.2 -659.09,-210.04 -1320.97,-168.34 532.34,203.94 2362.24,367.34 2344.6,1553.23 -295.98,-544.58 -448.64,-800.02 -1026.1,-1004.18 -413.45,200.05 -889.53,745.57 -1265.66,932.69 -825.41,410.57 -997.7,-100.8 -1790.05,-98.92 158.03,-1932.4 2282.22,-2806.13 3058.18,-1214.48z"/>
   <path class="fil1" d="M5965.04 6093.91c3802.73,-3020.65 5335.81,-2290.95 4753.79,-5021.93 -1921.11,5257.24 -2874.52,1987.51 -4753.79,5021.93z"/>
   <g>
    <path class="fil2 str0" d="M1562.07 9316.48c0,153.94 -8.49,263.74 -24.9,328.82 -7.92,32.26 -27.16,48.11 -57.73,48.11 -82.06,0 -204.31,-4.53 -367.87,-14.15 -163.57,-9.05 -285.81,-14.15 -367.88,-14.15 -76.97,0 -192.43,1.7 -345.8,5.1 -153.38,3.39 -268.84,5.09 -346.37,5.09 -27.73,0 -41.32,-13.58 -41.32,-41.32 0,-120.55 3.96,-302.22 11.89,-545.58 7.92,-243.37 11.88,-425.61 11.88,-547.29 0,-127.91 -5.66,-320.34 -16.98,-576.15 -11.32,-255.82 -16.98,-447.68 -16.98,-576.15 0,-24.34 13.59,-36.22 41.32,-36.22 20.37,0 50.37,1.69 91.69,5.09 40.75,3.4 71.87,5.09 92.81,5.09 19.81,0 50.94,-1.69 92.82,-5.09 42.45,-3.4 73.01,-5.09 93.39,-5.09 26.6,0 39.61,10.75 39.61,31.69 0,117.15 -4.52,293.17 -13.58,528.61 -9.05,235.44 -13.58,412.59 -13.58,530.87 0,57.17 0,144.89 0,262.04 -1.13,117.16 -1.7,204.32 -1.7,262.05 0,245.06 10.19,367.87 30,367.87 406.92,0 714.81,-9.62 921.95,-29.43 10.19,-1.13 35.66,-5.09 76.4,-11.88 32.83,-6.23 58.3,-9.62 76.41,-9.62 23.2,0 34.52,10.75 34.52,31.69zm1803.72 -1142.11c0,4.52 -1.69,14.14 -5.09,29.99 -44.14,252.99 -66.22,470.88 -66.22,654.25 0,11.32 14.15,259.22 42.45,744.25l1.7 23.2c1.13,32.26 -13.58,48.11 -44.15,48.11 -30.56,0 -76.4,3.39 -138.09,10.75 -61.13,7.36 -106.97,10.75 -136.97,10.75 -20.94,0 -36.78,-38.48 -48.1,-115.45 -11.32,-76.97 -21.51,-115.46 -31.7,-115.46 -6.79,0 -36.22,21.51 -89.42,64.52 -65.08,52.64 -126.21,92.82 -182.24,120.55 -87.72,44.15 -174.88,66.22 -262.04,66.22 -214.5,0 -395.61,-85.46 -542.76,-256.95 -139.23,-163.56 -208.84,-354.29 -208.84,-572.19 0,-245.06 70.18,-448.24 210.54,-608.41 147.15,-166.96 340.71,-250.15 580.68,-250.15 169.22,0 316.94,58.86 442.58,176.01 18.68,22.07 48.11,54.33 88.29,96.22 2.83,3.39 6.23,5.09 9.62,5.09 6.79,0 16.42,-34.53 28.3,-104.7 12.45,-69.62 27.73,-104.71 46.98,-104.71 29.99,0 86.02,8.49 168.09,24.9 91.12,19.81 136.39,37.92 136.39,53.21zm-424.47 693.3c0,-135.83 -40.18,-251.85 -121.11,-349.2 -84.9,-104.7 -193.56,-157.34 -326.56,-157.34 -132.44,0 -242.8,52.07 -331.66,155.64 -84.89,99.61 -127.34,216.2 -127.34,350.9 0,133.57 42.45,249.59 127.34,348.07 88.86,102.44 199.22,153.94 331.66,153.94 129.6,0 237.7,-52.63 324.86,-157.34 82.06,-98.48 122.81,-212.8 122.81,-344.67zm4061.93 746.51c0,43.01 -13.02,64.52 -38.49,64.52 -16.41,0 -41.88,-1.7 -75.27,-5.1 -33.96,-3.39 -59.43,-5.09 -77.54,-5.09 -18.67,0 -46.97,1.13 -84.33,3.39 -37.92,2.27 -66.21,3.4 -84.89,3.4 -23.21,0 -35.09,-26.03 -35.09,-78.1 0,-50.94 2.26,-126.78 6.23,-228.09 3.96,-101.3 5.65,-177.14 5.65,-228.08 0,-279.59 -1.13,-435.79 -3.39,-468.05 -8.49,-113.76 -31.7,-192.43 -69.61,-235.44 -43.02,-46.41 -119.99,-69.62 -230.35,-69.62 -69.62,0 -147.72,33.4 -234.88,99.61 -90.55,69.62 -137.53,138.1 -140.92,205.45 -4.53,86.59 -6.79,243.93 -6.79,473.14 0,54.34 2.26,135.27 6.79,243.93 4.53,108.1 6.22,189.6 6.22,243.93 0,29.43 -9.62,44.72 -29.43,44.72 -20.37,0 -49.23,-1.7 -87.15,-5.1 -38.49,-3.39 -67.35,-5.09 -87.16,-5.09 -18.11,0 -43.58,1.13 -78.11,3.39 -34.52,2.27 -60.55,3.4 -78.1,3.4 -22.07,0 -33.39,-15.85 -33.39,-48.11 0,-53.2 1.7,-133 5.09,-239.97 3.4,-106.4 5.1,-186.2 5.1,-239.4l0 -400.13c0,-125.08 -14.72,-213.94 -44.71,-267.14 -41.89,-75.27 -122.25,-112.63 -240.54,-112.63 -69.61,0 -152.24,29.43 -248.46,87.73 -105.83,64.52 -159.03,129.04 -159.03,194.12l0 484.47c0,55.46 0.56,138.09 1.7,247.33 1.13,109.79 1.69,191.29 1.69,245.62 0,32.26 -13.01,48.11 -38.48,48.11l-308.45 0c-22.07,0 -33.39,-14.72 -33.39,-44.71 0,-89.42 0.56,-223.56 1.69,-402.97 1.14,-179.41 1.7,-313.54 1.7,-402.96 0,-202.05 -22.07,-403.53 -66.22,-604.45 -3.39,-14.15 -5.09,-26.04 -5.09,-34.53 0,-14.71 5.09,-22.63 15.28,-24.9 40.75,-4.53 100.74,-13.02 179.98,-25.47 36.79,-11.32 91.68,-23.77 164.69,-37.35l13.59 -1.7c13.01,0 25.46,39.05 37.35,117.16 11.32,78.67 22.07,117.72 30.56,117.72 0,0 27.73,-24.91 83.2,-73.58 65.08,-56.59 130.17,-101.87 195.26,-135.26 93.95,-49.24 187.9,-73.58 281.85,-73.58 254.68,0 416.54,104.14 486.16,312.98 68.48,-88.86 153.37,-161.87 255.25,-219.59 108.1,-62.26 215.63,-93.39 321.47,-93.39 204.87,0 346.36,59.43 424.47,178.85 56.59,88.85 84.89,228.64 84.89,419.94 0,36.22 -1.13,92.82 -3.39,168.66 -2.27,76.4 -3.4,133 -3.4,169.22 0,69.61 1.7,174.32 5.09,314.11 3.4,139.79 5.1,245.06 5.1,314.68zm1941.81 -1439.81c0,4.52 -1.69,14.14 -5.09,29.99 -44.14,252.99 -66.22,470.88 -66.22,654.25 0,11.32 14.15,259.22 42.45,744.25l1.7 23.2c1.13,32.26 -13.58,48.11 -44.15,48.11 -30.56,0 -76.4,3.39 -138.09,10.75 -61.13,7.36 -106.97,10.75 -136.97,10.75 -20.94,0 -36.78,-38.48 -48.1,-115.45 -11.32,-76.97 -21.51,-115.46 -31.7,-115.46 -6.79,0 -36.22,21.51 -89.42,64.52 -65.08,52.64 -126.21,92.82 -182.24,120.55 -87.72,44.15 -174.88,66.22 -262.04,66.22 -214.5,0 -395.61,-85.46 -542.76,-256.95 -139.23,-163.56 -208.84,-354.29 -208.84,-572.19 0,-245.06 70.18,-448.24 210.54,-608.41 147.15,-166.96 340.71,-250.15 580.68,-250.15 169.22,0 316.94,58.86 442.58,176.01 18.68,22.07 48.11,54.33 88.29,96.22 2.83,3.39 6.23,5.09 9.62,5.09 6.79,0 16.42,-34.53 28.3,-104.7 12.45,-69.62 27.73,-104.71 46.98,-104.71 29.99,0 86.02,8.49 168.09,24.9 91.12,19.81 136.39,37.92 136.39,53.21zm-424.47 693.3c0,-135.83 -40.18,-251.85 -121.11,-349.2 -84.9,-104.7 -193.56,-157.34 -326.56,-157.34 -132.44,0 -242.8,52.07 -331.66,155.64 -84.89,99.61 -127.34,216.2 -127.34,350.9 0,133.57 42.45,249.59 127.34,348.07 88.86,102.44 199.22,153.94 331.66,153.94 129.6,0 237.7,-52.63 324.86,-157.34 82.06,-98.48 122.81,-212.8 122.81,-344.67zm2153.49 -738.58c0,133 -1.13,332.22 -3.39,598.22 -2.27,266 -3.4,465.22 -3.4,597.66 0,263.17 -56.59,457.3 -169.22,582.37 -118.29,133.01 -307.32,199.22 -567.66,199.22 -250.72,0 -453.9,-47.54 -608.41,-142.05 -24.34,-15.28 -36.79,-28.87 -36.79,-39.62 0,11.89 16.41,-69.61 49.81,-245.06 3.39,-18.68 11.31,-28.3 23.2,-28.3 5.66,0 13.02,2.83 21.51,8.49 166.39,93.95 332.78,140.92 499.74,140.92 109.8,0 200.92,-24.33 272.8,-73.01 82.63,-54.89 124.51,-135.26 124.51,-239.96 0,-23.21 -2.27,-75.28 -6.79,-155.64 -122.82,149.41 -278.46,224.12 -468.06,224.12 -204.31,0 -372.4,-73.58 -504.27,-220.73 -126.21,-141.49 -189.03,-315.81 -189.03,-522.38 0,-209.97 61.12,-388.82 182.81,-535.97 129.6,-156.77 297.69,-235.44 504.84,-235.44 182.8,0 328.25,70.18 435.79,209.97 17.54,23.21 29.99,34.53 37.92,34.53 9.05,0 13.01,-10.19 13.01,-30 0,-14.15 -1.13,-37.35 -3.39,-68.48 -1.7,-31.7 -2.83,-54.9 -2.83,-70.18 0,-66.22 6.22,-99.61 19.81,-99.61 10.75,0 70.18,10.19 177.71,30.56 108.1,20.38 166.96,32.83 176.58,37.35 15.28,5.66 23.2,19.81 23.2,43.02zm-397.3 684.25c0,-123.38 -33.96,-228.65 -101.31,-314.68 -74.14,-93.95 -171.49,-140.92 -291.47,-140.92 -119.42,0 -216.2,47.54 -290.34,142.62 -67.35,86.03 -101.31,190.73 -101.31,312.98 0,120.55 34.53,224.69 103.01,311.84 74.14,95.09 170.35,142.63 288.64,142.63 117.15,0 213.37,-47.54 288.07,-142.63 69.62,-87.15 104.71,-191.29 104.71,-311.84zm1134.19 -1121.18c0,135.84 -75.84,203.75 -227.51,203.75 -153.95,0 -230.92,-67.91 -230.92,-203.75 0,-60.55 23.77,-110.92 71.31,-150.54 44.15,-37.92 97.35,-56.6 159.61,-56.6 61.69,0 115.45,19.24 160.16,57.73 44.71,39.05 67.35,88.86 67.35,149.41zm-13.58 449.38c0,84.89 -5.09,213.37 -15.28,385.42 -10.19,172.05 -15.28,301.09 -15.28,387.12 0,80.93 1.7,201.48 5.09,362.22 3.4,160.73 5.1,281.28 5.1,360.51 0,23.21 -10.19,35.09 -30,35.09l-323.73 0c-23.21,0 -35.09,-22.63 -35.09,-67.91 0,-76.41 2.26,-191.3 6.22,-344.11 3.97,-153.37 5.66,-268.26 5.66,-345.8 0,-86.03 -6.22,-215.63 -18.67,-388.25 -12.45,-172.05 -18.68,-301.66 -18.68,-387.69 0,-18.67 11.32,-28.29 34.52,-28.29 19.81,0 50.37,2.83 91.69,8.48 41.32,5.1 72.44,7.93 93.38,7.93 20.94,0 52.07,-2.83 93.39,-7.93 41.31,-5.65 72.44,-8.48 93.38,-8.48 18.68,0 28.3,10.75 28.3,31.69zm1942.95 32.83c0,4.52 -1.69,14.14 -5.09,29.99 -44.14,252.99 -66.22,470.88 -66.22,654.25 0,11.32 14.15,259.22 42.45,744.25l1.7 23.2c1.13,32.26 -13.58,48.11 -44.15,48.11 -30.56,0 -76.4,3.39 -138.09,10.75 -61.13,7.36 -106.97,10.75 -136.97,10.75 -20.94,0 -36.78,-38.48 -48.1,-115.45 -11.32,-76.97 -21.51,-115.46 -31.7,-115.46 -6.79,0 -36.22,21.51 -89.42,64.52 -65.08,52.64 -126.21,92.82 -182.24,120.55 -87.72,44.15 -174.88,66.22 -262.04,66.22 -214.5,0 -395.61,-85.46 -542.76,-256.95 -139.23,-163.56 -208.84,-354.29 -208.84,-572.19 0,-245.06 70.18,-448.24 210.54,-608.41 147.15,-166.96 340.71,-250.15 580.68,-250.15 169.22,0 316.94,58.86 442.58,176.01 18.68,22.07 48.11,54.33 88.29,96.22 2.83,3.39 6.23,5.09 9.62,5.09 6.79,0 16.42,-34.53 28.3,-104.7 12.45,-69.62 27.73,-104.71 46.98,-104.71 29.99,0 86.02,8.49 168.09,24.9 91.12,19.81 136.39,37.92 136.39,53.21zm-424.47 693.3c0,-135.83 -40.18,-251.85 -121.11,-349.2 -84.9,-104.7 -193.56,-157.34 -326.56,-157.34 -132.44,0 -242.8,52.07 -331.66,155.64 -84.89,99.61 -127.34,216.2 -127.34,350.9 0,133.57 42.45,249.59 127.34,348.07 88.86,102.44 199.22,153.94 331.66,153.94 129.6,0 237.7,-52.63 324.86,-157.34 82.06,-98.48 122.81,-212.8 122.81,-344.67z"/>
    <path id="1" class="fil3" d="M1562.07 9316.48c0,153.94 -8.49,263.74 -24.9,328.82 -7.92,32.26 -27.16,48.11 -57.73,48.11 -82.06,0 -204.31,-4.53 -367.87,-14.15 -163.57,-9.05 -285.81,-14.15 -367.88,-14.15 -76.97,0 -192.43,1.7 -345.8,5.1 -153.38,3.39 -268.84,5.09 -346.37,5.09 -27.73,0 -41.32,-13.58 -41.32,-41.32 0,-120.55 3.96,-302.22 11.89,-545.58 7.92,-243.37 11.88,-425.61 11.88,-547.29 0,-127.91 -5.66,-320.34 -16.98,-576.15 -11.32,-255.82 -16.98,-447.68 -16.98,-576.15 0,-24.34 13.59,-36.22 41.32,-36.22 20.37,0 50.37,1.69 91.69,5.09 40.75,3.4 71.87,5.09 92.81,5.09 19.81,0 50.94,-1.69 92.82,-5.09 42.45,-3.4 73.01,-5.09 93.39,-5.09 26.6,0 39.61,10.75 39.61,31.69 0,117.15 -4.52,293.17 -13.58,528.61 -9.05,235.44 -13.58,412.59 -13.58,530.87 0,57.17 0,144.89 0,262.04 -1.13,117.16 -1.7,204.32 -1.7,262.05 0,245.06 10.19,367.87 30,367.87 406.92,0 714.81,-9.62 921.95,-29.43 10.19,-1.13 35.66,-5.09 76.4,-11.88 32.83,-6.23 58.3,-9.62 76.41,-9.62 23.2,0 34.52,10.75 34.52,31.69zm1803.72 -1142.11c0,4.52 -1.69,14.14 -5.09,29.99 -44.14,252.99 -66.22,470.88 -66.22,654.25 0,11.32 14.15,259.22 42.45,744.25l1.7 23.2c1.13,32.26 -13.58,48.11 -44.15,48.11 -30.56,0 -76.4,3.39 -138.09,10.75 -61.13,7.36 -106.97,10.75 -136.97,10.75 -20.94,0 -36.78,-38.48 -48.1,-115.45 -11.32,-76.97 -21.51,-115.46 -31.7,-115.46 -6.79,0 -36.22,21.51 -89.42,64.52 -65.08,52.64 -126.21,92.82 -182.24,120.55 -87.72,44.15 -174.88,66.22 -262.04,66.22 -214.5,0 -395.61,-85.46 -542.76,-256.95 -139.23,-163.56 -208.84,-354.29 -208.84,-572.19 0,-245.06 70.18,-448.24 210.54,-608.41 147.15,-166.96 340.71,-250.15 580.68,-250.15 169.22,0 316.94,58.86 442.58,176.01 18.68,22.07 48.11,54.33 88.29,96.22 2.83,3.39 6.23,5.09 9.62,5.09 6.79,0 16.42,-34.53 28.3,-104.7 12.45,-69.62 27.73,-104.71 46.98,-104.71 29.99,0 86.02,8.49 168.09,24.9 91.12,19.81 136.39,37.92 136.39,53.21zm-424.47 693.3c0,-135.83 -40.18,-251.85 -121.11,-349.2 -84.9,-104.7 -193.56,-157.34 -326.56,-157.34 -132.44,0 -242.8,52.07 -331.66,155.64 -84.89,99.61 -127.34,216.2 -127.34,350.9 0,133.57 42.45,249.59 127.34,348.07 88.86,102.44 199.22,153.94 331.66,153.94 129.6,0 237.7,-52.63 324.86,-157.34 82.06,-98.48 122.81,-212.8 122.81,-344.67zm4061.93 746.51c0,43.01 -13.02,64.52 -38.49,64.52 -16.41,0 -41.88,-1.7 -75.27,-5.1 -33.96,-3.39 -59.43,-5.09 -77.54,-5.09 -18.67,0 -46.97,1.13 -84.33,3.39 -37.92,2.27 -66.21,3.4 -84.89,3.4 -23.21,0 -35.09,-26.03 -35.09,-78.1 0,-50.94 2.26,-126.78 6.23,-228.09 3.96,-101.3 5.65,-177.14 5.65,-228.08 0,-279.59 -1.13,-435.79 -3.39,-468.05 -8.49,-113.76 -31.7,-192.43 -69.61,-235.44 -43.02,-46.41 -119.99,-69.62 -230.35,-69.62 -69.62,0 -147.72,33.4 -234.88,99.61 -90.55,69.62 -137.53,138.1 -140.92,205.45 -4.53,86.59 -6.79,243.93 -6.79,473.14 0,54.34 2.26,135.27 6.79,243.93 4.53,108.1 6.22,189.6 6.22,243.93 0,29.43 -9.62,44.72 -29.43,44.72 -20.37,0 -49.23,-1.7 -87.15,-5.1 -38.49,-3.39 -67.35,-5.09 -87.16,-5.09 -18.11,0 -43.58,1.13 -78.11,3.39 -34.52,2.27 -60.55,3.4 -78.1,3.4 -22.07,0 -33.39,-15.85 -33.39,-48.11 0,-53.2 1.7,-133 5.09,-239.97 3.4,-106.4 5.1,-186.2 5.1,-239.4l0 -400.13c0,-125.08 -14.72,-213.94 -44.71,-267.14 -41.89,-75.27 -122.25,-112.63 -240.54,-112.63 -69.61,0 -152.24,29.43 -248.46,87.73 -105.83,64.52 -159.03,129.04 -159.03,194.12l0 484.47c0,55.46 0.56,138.09 1.7,247.33 1.13,109.79 1.69,191.29 1.69,245.62 0,32.26 -13.01,48.11 -38.48,48.11l-308.45 0c-22.07,0 -33.39,-14.72 -33.39,-44.71 0,-89.42 0.56,-223.56 1.69,-402.97 1.14,-179.41 1.7,-313.54 1.7,-402.96 0,-202.05 -22.07,-403.53 -66.22,-604.45 -3.39,-14.15 -5.09,-26.04 -5.09,-34.53 0,-14.71 5.09,-22.63 15.28,-24.9 40.75,-4.53 100.74,-13.02 179.98,-25.47 36.79,-11.32 91.68,-23.77 164.69,-37.35l13.59 -1.7c13.01,0 25.46,39.05 37.35,117.16 11.32,78.67 22.07,117.72 30.56,117.72 0,0 27.73,-24.91 83.2,-73.58 65.08,-56.59 130.17,-101.87 195.26,-135.26 93.95,-49.24 187.9,-73.58 281.85,-73.58 254.68,0 416.54,104.14 486.16,312.98 68.48,-88.86 153.37,-161.87 255.25,-219.59 108.1,-62.26 215.63,-93.39 321.47,-93.39 204.87,0 346.36,59.43 424.47,178.85 56.59,88.85 84.89,228.64 84.89,419.94 0,36.22 -1.13,92.82 -3.39,168.66 -2.27,76.4 -3.4,133 -3.4,169.22 0,69.61 1.7,174.32 5.09,314.11 3.4,139.79 5.1,245.06 5.1,314.68zm1941.81 -1439.81c0,4.52 -1.69,14.14 -5.09,29.99 -44.14,252.99 -66.22,470.88 -66.22,654.25 0,11.32 14.15,259.22 42.45,744.25l1.7 23.2c1.13,32.26 -13.58,48.11 -44.15,48.11 -30.56,0 -76.4,3.39 -138.09,10.75 -61.13,7.36 -106.97,10.75 -136.97,10.75 -20.94,0 -36.78,-38.48 -48.1,-115.45 -11.32,-76.97 -21.51,-115.46 -31.7,-115.46 -6.79,0 -36.22,21.51 -89.42,64.52 -65.08,52.64 -126.21,92.82 -182.24,120.55 -87.72,44.15 -174.88,66.22 -262.04,66.22 -214.5,0 -395.61,-85.46 -542.76,-256.95 -139.23,-163.56 -208.84,-354.29 -208.84,-572.19 0,-245.06 70.18,-448.24 210.54,-608.41 147.15,-166.96 340.71,-250.15 580.68,-250.15 169.22,0 316.94,58.86 442.58,176.01 18.68,22.07 48.11,54.33 88.29,96.22 2.83,3.39 6.23,5.09 9.62,5.09 6.79,0 16.42,-34.53 28.3,-104.7 12.45,-69.62 27.73,-104.71 46.98,-104.71 29.99,0 86.02,8.49 168.09,24.9 91.12,19.81 136.39,37.92 136.39,53.21zm-424.47 693.3c0,-135.83 -40.18,-251.85 -121.11,-349.2 -84.9,-104.7 -193.56,-157.34 -326.56,-157.34 -132.44,0 -242.8,52.07 -331.66,155.64 -84.89,99.61 -127.34,216.2 -127.34,350.9 0,133.57 42.45,249.59 127.34,348.07 88.86,102.44 199.22,153.94 331.66,153.94 129.6,0 237.7,-52.63 324.86,-157.34 82.06,-98.48 122.81,-212.8 122.81,-344.67zm2153.49 -738.58c0,133 -1.13,332.22 -3.39,598.22 -2.27,266 -3.4,465.22 -3.4,597.66 0,263.17 -56.59,457.3 -169.22,582.37 -118.29,133.01 -307.32,199.22 -567.66,199.22 -250.72,0 -453.9,-47.54 -608.41,-142.05 -24.34,-15.28 -36.79,-28.87 -36.79,-39.62 0,11.89 16.41,-69.61 49.81,-245.06 3.39,-18.68 11.31,-28.3 23.2,-28.3 5.66,0 13.02,2.83 21.51,8.49 166.39,93.95 332.78,140.92 499.74,140.92 109.8,0 200.92,-24.33 272.8,-73.01 82.63,-54.89 124.51,-135.26 124.51,-239.96 0,-23.21 -2.27,-75.28 -6.79,-155.64 -122.82,149.41 -278.46,224.12 -468.06,224.12 -204.31,0 -372.4,-73.58 -504.27,-220.73 -126.21,-141.49 -189.03,-315.81 -189.03,-522.38 0,-209.97 61.12,-388.82 182.81,-535.97 129.6,-156.77 297.69,-235.44 504.84,-235.44 182.8,0 328.25,70.18 435.79,209.97 17.54,23.21 29.99,34.53 37.92,34.53 9.05,0 13.01,-10.19 13.01,-30 0,-14.15 -1.13,-37.35 -3.39,-68.48 -1.7,-31.7 -2.83,-54.9 -2.83,-70.18 0,-66.22 6.22,-99.61 19.81,-99.61 10.75,0 70.18,10.19 177.71,30.56 108.1,20.38 166.96,32.83 176.58,37.35 15.28,5.66 23.2,19.81 23.2,43.02zm-397.3 684.25c0,-123.38 -33.96,-228.65 -101.31,-314.68 -74.14,-93.95 -171.49,-140.92 -291.47,-140.92 -119.42,0 -216.2,47.54 -290.34,142.62 -67.35,86.03 -101.31,190.73 -101.31,312.98 0,120.55 34.53,224.69 103.01,311.84 74.14,95.09 170.35,142.63 288.64,142.63 117.15,0 213.37,-47.54 288.07,-142.63 69.62,-87.15 104.71,-191.29 104.71,-311.84zm1134.19 -1121.18c0,135.84 -75.84,203.75 -227.51,203.75 -153.95,0 -230.92,-67.91 -230.92,-203.75 0,-60.55 23.77,-110.92 71.31,-150.54 44.15,-37.92 97.35,-56.6 159.61,-56.6 61.69,0 115.45,19.24 160.16,57.73 44.71,39.05 67.35,88.86 67.35,149.41zm-13.58 449.38c0,84.89 -5.09,213.37 -15.28,385.42 -10.19,172.05 -15.28,301.09 -15.28,387.12 0,80.93 1.7,201.48 5.09,362.22 3.4,160.73 5.1,281.28 5.1,360.51 0,23.21 -10.19,35.09 -30,35.09l-323.73 0c-23.21,0 -35.09,-22.63 -35.09,-67.91 0,-76.41 2.26,-191.3 6.22,-344.11 3.97,-153.37 5.66,-268.26 5.66,-345.8 0,-86.03 -6.22,-215.63 -18.67,-388.25 -12.45,-172.05 -18.68,-301.66 -18.68,-387.69 0,-18.67 11.32,-28.29 34.52,-28.29 19.81,0 50.37,2.83 91.69,8.48 41.32,5.1 72.44,7.93 93.38,7.93 20.94,0 52.07,-2.83 93.39,-7.93 41.31,-5.65 72.44,-8.48 93.38,-8.48 18.68,0 28.3,10.75 28.3,31.69zm1942.95 32.83c0,4.52 -1.69,14.14 -5.09,29.99 -44.14,252.99 -66.22,470.88 -66.22,654.25 0,11.32 14.15,259.22 42.45,744.25l1.7 23.2c1.13,32.26 -13.58,48.11 -44.15,48.11 -30.56,0 -76.4,3.39 -138.09,10.75 -61.13,7.36 -106.97,10.75 -136.97,10.75 -20.94,0 -36.78,-38.48 -48.1,-115.45 -11.32,-76.97 -21.51,-115.46 -31.7,-115.46 -6.79,0 -36.22,21.51 -89.42,64.52 -65.08,52.64 -126.21,92.82 -182.24,120.55 -87.72,44.15 -174.88,66.22 -262.04,66.22 -214.5,0 -395.61,-85.46 -542.76,-256.95 -139.23,-163.56 -208.84,-354.29 -208.84,-572.19 0,-245.06 70.18,-448.24 210.54,-608.41 147.15,-166.96 340.71,-250.15 580.68,-250.15 169.22,0 316.94,58.86 442.58,176.01 18.68,22.07 48.11,54.33 88.29,96.22 2.83,3.39 6.23,5.09 9.62,5.09 6.79,0 16.42,-34.53 28.3,-104.7 12.45,-69.62 27.73,-104.71 46.98,-104.71 29.99,0 86.02,8.49 168.09,24.9 91.12,19.81 136.39,37.92 136.39,53.21zm-424.47 693.3c0,-135.83 -40.18,-251.85 -121.11,-349.2 -84.9,-104.7 -193.56,-157.34 -326.56,-157.34 -132.44,0 -242.8,52.07 -331.66,155.64 -84.89,99.61 -127.34,216.2 -127.34,350.9 0,133.57 42.45,249.59 127.34,348.07 88.86,102.44 199.22,153.94 331.66,153.94 129.6,0 237.7,-52.63 324.86,-157.34 82.06,-98.48 122.81,-212.8 122.81,-344.67z"/>
   </g>
   <path class="fil4" d="M7666.02 4122.73c62.62,-29.37 -5.01,42.4 86.87,-68.99l208.71 -330.2c458.45,-700.73 1503.55,-2075.54 2242.33,-2169.91 -191.5,183.65 -277.38,190.16 -593.2,527.2 -580.85,619.87 -1125.36,1622.53 -1397.51,2453.23 312.07,186.51 545.88,192.35 858.62,148.19 783.72,-110.63 1557.44,-537.73 1863.48,-1384.13 119.78,-331.26 166.72,-743.01 205.23,-1075.77 114.07,-985.79 354.19,-1345.21 779.69,-2176.23 -196.99,6.98 -1257.36,442.49 -1515.27,538.36 -557.67,207.27 -1626.27,710 -2136.88,1077.17 -210.8,151.59 -459.29,344.18 -572.09,676.6 -148.1,436.46 -174.63,954.11 -110.43,1379.1 21.01,139.09 69.38,283.48 80.45,405.38z"/>
   <path class="fil5" d="M11456.7 1676.47c-135.54,346.37 -124.13,941.59 -222.75,1329.86 184.77,-2.95 884.72,-321.52 1309.22,-183.05 -517.77,112.86 -808.27,231.87 -1223.35,459.59 -268.17,147.12 -152.52,89.35 -317.98,393.16 -474.33,870.88 -1259.11,1003.24 -1445.81,1125.79 209.6,450.34 2025.42,970.42 3000.45,-165.99 368.67,-429.69 630.43,-1024.57 985.94,-1474.51 615.26,-778.68 1047.11,-896.9 1176.51,-1031.79 -481.69,-211.97 -1241.82,-389.35 -1731.7,-458.03 -754.57,-105.77 -848.62,-53.47 -1530.53,4.97z"/>
   <path class="fil6" d="M7447.9 4308.49c62.27,-176.05 -179.03,-963.67 -235.99,-1140.38 -122.51,-380.07 -288.34,-612.67 -551.3,-980.47 295.95,120.56 528.38,543.64 676.38,752.01 39.01,-138.44 41.31,-308.68 77.16,-473.43 39.59,-182.03 101.96,-333.79 158.04,-514.14 -377.09,-449.24 -1127.49,-739.9 -1761.05,-957.21 -9.13,68 140.16,625.25 160.58,999.4 20.13,368.79 -52.59,745.37 -28.72,1099.54 22.93,340.44 170.86,615.55 441.71,862.37 264,240.56 733.11,464.47 1063.19,352.31z"/>
   <g>
    <path class="fil2 str0" d="M2954.74 12654.85c0,41.31 -11.88,61.69 -35.09,61.69 -33.96,0 -86.02,-0.57 -156.2,-1.7 -69.62,-1.13 -121.69,-1.7 -155.64,-1.7 -27.74,0 -41.89,-18.11 -41.89,-54.9 0,-53.2 2.27,-133 6.23,-240.53 3.96,-106.97 5.66,-187.9 5.66,-242.24 0,-50.93 -1.7,-127.9 -5.66,-231.47 -3.96,-103.01 -6.23,-181.11 -6.23,-232.62 0,-199.21 -93.38,-298.82 -281.28,-298.82 -61.12,0 -140.36,30.56 -238.84,91.12 -104.7,65.08 -157.33,125.07 -157.33,179.41l0 985.34c0,31.69 -11.32,48.11 -34.53,48.11 -34.52,0 -85.46,-0.57 -153.94,-1.7 -68.48,-1.13 -119.42,-1.7 -153.94,-1.7 -25.47,0 -37.92,-14.72 -37.92,-44.71l0 -800.84c0,-130.17 -7.36,-408.06 -22.07,-831.97 -2.27,-131.86 -11.89,-326.56 -28.87,-584.07 -2.26,-13.02 -3.39,-22.07 -3.39,-26.6 0,-18.68 6.79,-30 19.81,-34.52 18.67,-6.23 81.49,-9.62 187.33,-9.62 23.2,0 58.29,-3.97 104.7,-12.46 46.41,-7.92 80.37,-11.88 101.31,-11.88 14.15,0 21.51,10.75 21.51,31.69 0,103.57 -3.97,260.35 -11.89,468.62 -7.92,208.27 -11.32,365.05 -11.32,468.62 0,25.47 3.96,39.05 13.02,40.18 56.6,-48.11 129.04,-105.83 218.46,-173.75 108.1,-67.92 222.42,-101.87 342.97,-101.87 207.15,0 350.34,61.69 429,185.63 56.04,90.56 84.33,234.31 84.33,431.27 0,33.95 -1.13,87.16 -2.83,158.47 -1.69,71.31 -2.26,123.94 -2.26,157.9 0,70.75 1.13,176.58 3.4,316.94 2.26,140.36 3.39,245.06 3.39,314.68zm1721.67 -832.54c0,81.5 -35.09,136.4 -105.84,164.13 -48.11,17.55 -390.51,50.37 -1028.35,98.48 14.14,97.35 67.91,179.98 161.3,248.46 88.85,65.08 183.93,97.91 285.81,97.91 175.45,0 336.18,-56.03 482.2,-167.52 18.11,-14.72 35.65,-28.87 53.2,-43.02 9.05,0 14.71,1.13 17.54,3.4 2.83,2.26 23.77,40.18 62.26,114.32 39.05,74.71 58.29,114.33 58.29,119.99 0,6.79 -9.05,19.24 -26.6,37.92 -162.43,171.48 -370.7,257.51 -625.39,257.51 -256.38,0 -460.69,-76.41 -613.5,-229.78 -152.25,-152.81 -228.65,-357.12 -228.65,-612.37 0,-228.09 73.01,-426.17 218.46,-595.4 153.94,-176.01 341.84,-263.74 565.4,-263.74 207.71,0 380.89,76.41 520.12,228.65 135.83,148.29 203.75,328.83 203.75,541.06zm-393.91 -100.74c0,-91.68 -36.23,-173.18 -108.67,-243.93 -72.44,-70.74 -153.94,-105.83 -245.06,-105.83 -101.87,0 -191.86,40.75 -271.1,122.24 -79.23,81.5 -118.85,173.19 -118.85,274.5 0,23.2 19.81,34.52 59.43,34.52 164.13,0 359.95,-16.41 588.03,-48.67 63.96,-9.06 96.22,-19.81 96.22,-32.83zm1575.64 -565.96c0,121.68 -8.49,232.61 -24.9,332.22 -3.4,25.47 -14.72,37.92 -33.39,37.92 -23.21,0 -58.3,-2.26 -105.27,-7.36 -47.54,-5.09 -83.2,-7.36 -107.53,-7.36 -139.8,0 -229.22,39.06 -267.71,117.72 -23.2,47.55 -35.09,146.59 -35.09,296.57l0 182.81c0,61.69 2.27,155.64 6.8,281.84 4.52,125.65 6.79,219.6 6.79,281.85 0,29.43 -12.45,44.72 -37.92,44.72 -33.96,0 -85.46,-0.57 -154.51,-1.7 -69.05,-1.13 -121.12,-1.7 -155.07,-1.7 -24.91,0 -37.92,-13.58 -37.92,-41.32 0,-89.42 1.69,-224.68 4.52,-404.66 2.83,-179.98 3.97,-315.81 3.97,-406.36 0,-272.8 -24.91,-492.39 -74.71,-658.22 -2.26,-9.05 -3.4,-15.28 -3.4,-19.8 0,-13.59 7.36,-22.64 21.51,-28.3 40.18,-4.53 97.35,-11.32 170.92,-20.38 118.29,-22.64 173.19,-33.96 164.13,-33.96 17.55,0 29.43,32.83 34.52,98.48 5.66,66.22 15.85,99.05 30,99.05 2.26,0 5.09,-1.14 8.49,-3.4 45.28,-28.86 90.55,-57.73 136.4,-87.16 49.8,-29.99 100.74,-52.07 153.37,-66.78 43.02,-13.02 98.48,-19.81 166.4,-19.81 86.59,0 129.6,11.88 129.6,35.09zm1826.93 756.69c0,219.03 -67.92,409.76 -203.75,572.76 -144.89,172.62 -324.86,258.64 -540.5,258.64 -143.75,0 -269.96,-36.79 -379.76,-109.79 -44.14,-37.92 -88.29,-75.28 -132.43,-112.07 -11.89,3.4 -19.81,36.79 -23.77,100.18 -3.96,62.82 -13.02,94.52 -27.17,94.52l-350.33 0c-13.02,0 -19.81,-7.36 -19.81,-21.51 0,1.13 1.13,-9.06 3.4,-30 18.11,-176.58 27.16,-515.02 27.16,-1014.77 0,-204.31 -9.05,-504.84 -27.16,-900.45 -11.32,-251.85 -16.98,-362.78 -16.98,-331.65 0,-28.87 14.15,-44.71 43.01,-48.11 40.18,-1.13 99.04,-3.39 177.71,-6.22 15.28,-1.14 46.98,-5.1 94.52,-11.32 39.62,-6.23 71.88,-9.62 96.21,-9.62 17.55,0 26.6,12.45 26.6,37.92 0,37.91 -2.83,95.08 -7.92,172.05 -5.66,77.53 -7.92,135.26 -7.92,173.75 0,57.73 -2.83,143.75 -7.36,259.21 -5.09,115.46 -7.36,201.48 -7.36,259.21 0,41.88 7.93,62.82 23.21,62.82 7.92,0 15.84,-6.22 24.9,-18.11 121.11,-151.11 281.85,-226.95 481.63,-226.95 228.65,0 413.72,85.46 555.21,256.95 132.44,161.86 198.66,359.38 198.66,592.56zm-373.54 -15.28c0,-131.3 -41.31,-247.33 -124.51,-347.5 -88.29,-106.97 -196.96,-160.73 -326.56,-160.73 -132.44,0 -242.8,52.63 -331.09,157.33 -85.46,99.61 -127.91,216.2 -127.91,350.9 0,136.96 42.45,255.25 127.91,354.86 88.29,103.57 199.78,155.64 334.48,155.64 130.74,0 239.41,-53.77 326.56,-160.73 80.94,-99.61 121.12,-215.64 121.12,-349.77zm2112.74 7.92c0,230.92 -75.84,428.44 -226.95,592 -155.07,169.23 -346.37,253.55 -575.02,253.55 -230.34,0 -422.2,-83.76 -577.28,-251.85 -151.11,-162.43 -226.95,-359.39 -226.95,-590.3 0,-230.91 75.84,-427.87 226.95,-590.3 156.21,-165.83 348.07,-248.46 577.28,-248.46 227.52,0 418.25,82.63 573.32,248.46 152.25,161.3 228.65,357.12 228.65,586.9zm-349.76 3.4c0,-134.7 -41.32,-249.59 -124.51,-344.67 -86.03,-100.74 -195.26,-151.11 -327.7,-151.11 -133,0 -242.79,49.8 -329.95,149.41 -83.2,96.21 -124.51,211.67 -124.51,346.37 0,132.44 41.88,247.89 126.21,344.67 88.29,103.01 197.52,154.51 328.25,154.51 131.31,0 240.54,-51.5 327.7,-154.51 83.19,-96.78 124.51,-212.23 124.51,-344.67zm1002.32 -1494.71l-1.7 21.51c-23.77,410.89 -35.65,764.05 -35.65,1059.48 0,131.3 2.26,328.26 6.79,590.87 4.53,262.6 6.22,458.99 6.22,589.73 0,25.47 -8.49,37.92 -26.03,37.92l-316.94 0c-19.81,0 -30,-12.45 -30,-37.92 0,-130.74 1.14,-327.13 3.4,-589.73 2.26,-262.61 3.4,-459.57 3.4,-590.87 0,-119.42 -5.66,-298.83 -16.98,-538.23 -11.32,-239.4 -16.98,-417.68 -16.98,-535.97 0,-22.07 11.32,-33.39 34.52,-33.39 19.81,0 49.81,1.7 89.42,5.09 39.62,3.4 69.05,5.1 89.43,5.1 20.37,0 51.5,-1.7 92.25,-5.1 40.75,-3.39 70.74,-5.09 90.55,-5.09 19.81,0 29.43,9.06 28.3,26.6zm1942.95 798.58c0,4.52 -1.69,14.14 -5.09,29.99 -44.14,252.99 -66.22,470.88 -66.22,654.25 0,11.32 14.15,259.22 42.45,744.25l1.7 23.2c1.13,32.26 -13.58,48.11 -44.15,48.11 -30.56,0 -76.4,3.39 -138.09,10.75 -61.13,7.36 -106.97,10.75 -136.97,10.75 -20.94,0 -36.78,-38.48 -48.1,-115.45 -11.32,-76.97 -21.51,-115.46 -31.7,-115.46 -6.79,0 -36.22,21.51 -89.42,64.52 -65.08,52.64 -126.21,92.82 -182.24,120.55 -87.72,44.15 -174.88,66.22 -262.04,66.22 -214.5,0 -395.61,-85.46 -542.76,-256.95 -139.23,-163.56 -208.84,-354.29 -208.84,-572.19 0,-245.06 70.18,-448.24 210.54,-608.41 147.15,-166.96 340.71,-250.15 580.68,-250.15 169.22,0 316.94,58.86 442.58,176.01 18.68,22.07 48.11,54.33 88.29,96.22 2.83,3.39 6.23,5.09 9.62,5.09 6.79,0 16.42,-34.53 28.3,-104.7 12.45,-69.62 27.73,-104.71 46.98,-104.71 29.99,0 86.02,8.49 168.09,24.9 91.12,19.81 136.39,37.92 136.39,53.21zm-424.47 693.3c0,-135.83 -40.18,-251.85 -121.11,-349.2 -84.9,-104.7 -193.56,-157.34 -326.56,-157.34 -132.44,0 -242.8,52.07 -331.66,155.64 -84.89,99.61 -127.34,216.2 -127.34,350.9 0,133.57 42.45,249.59 127.34,348.07 88.86,102.44 199.22,153.94 331.66,153.94 129.6,0 237.7,-52.63 324.86,-157.34 82.06,-98.48 122.81,-212.8 122.81,-344.67zm1640.73 -749.9c0,121.68 -8.49,232.61 -24.9,332.22 -3.4,25.47 -14.72,37.92 -33.39,37.92 -23.21,0 -58.3,-2.26 -105.27,-7.36 -47.54,-5.09 -83.2,-7.36 -107.53,-7.36 -139.8,0 -229.22,39.06 -267.71,117.72 -23.2,47.55 -35.09,146.59 -35.09,296.57l0 182.81c0,61.69 2.27,155.64 6.8,281.84 4.52,125.65 6.79,219.6 6.79,281.85 0,29.43 -12.45,44.72 -37.92,44.72 -33.96,0 -85.46,-0.57 -154.51,-1.7 -69.05,-1.13 -121.12,-1.7 -155.07,-1.7 -24.91,0 -37.92,-13.58 -37.92,-41.32 0,-89.42 1.69,-224.68 4.52,-404.66 2.83,-179.98 3.97,-315.81 3.97,-406.36 0,-272.8 -24.91,-492.39 -74.71,-658.22 -2.26,-9.05 -3.4,-15.28 -3.4,-19.8 0,-13.59 7.36,-22.64 21.51,-28.3 40.18,-4.53 97.35,-11.32 170.92,-20.38 118.29,-22.64 173.19,-33.96 164.13,-33.96 17.55,0 29.43,32.83 34.52,98.48 5.66,66.22 15.85,99.05 30,99.05 2.26,0 5.09,-1.14 8.49,-3.4 45.28,-28.86 90.55,-57.73 136.4,-87.16 49.8,-29.99 100.74,-52.07 153.37,-66.78 43.02,-13.02 98.48,-19.81 166.4,-19.81 86.59,0 129.6,11.88 129.6,35.09zm614.63 -425.61c0,135.84 -75.84,203.75 -227.51,203.75 -153.95,0 -230.92,-67.91 -230.92,-203.75 0,-60.55 23.77,-110.92 71.31,-150.54 44.15,-37.92 97.35,-56.6 159.61,-56.6 61.69,0 115.45,19.24 160.16,57.73 44.71,39.05 67.35,88.86 67.35,149.41zm-13.58 449.38c0,84.89 -5.09,213.37 -15.28,385.42 -10.19,172.05 -15.28,301.09 -15.28,387.12 0,80.93 1.7,201.48 5.09,362.22 3.4,160.73 5.1,281.28 5.1,360.51 0,23.21 -10.19,35.09 -30,35.09l-323.73 0c-23.21,0 -35.09,-22.63 -35.09,-67.91 0,-76.41 2.26,-191.3 6.22,-344.11 3.97,-153.37 5.66,-268.26 5.66,-345.8 0,-86.03 -6.22,-215.63 -18.67,-388.25 -12.45,-172.05 -18.68,-301.66 -18.68,-387.69 0,-18.67 11.32,-28.29 34.52,-28.29 19.81,0 50.37,2.83 91.69,8.48 41.32,5.1 72.44,7.93 93.38,7.93 20.94,0 52.07,-2.83 93.39,-7.93 41.31,-5.65 72.44,-8.48 93.38,-8.48 18.68,0 28.3,10.75 28.3,31.69zm1942.95 32.83c0,4.52 -1.69,14.14 -5.09,29.99 -44.14,252.99 -66.22,470.88 -66.22,654.25 0,11.32 14.15,259.22 42.45,744.25l1.7 23.2c1.13,32.26 -13.58,48.11 -44.15,48.11 -30.56,0 -76.4,3.39 -138.09,10.75 -61.13,7.36 -106.97,10.75 -136.97,10.75 -20.94,0 -36.78,-38.48 -48.1,-115.45 -11.32,-76.97 -21.51,-115.46 -31.7,-115.46 -6.79,0 -36.22,21.51 -89.42,64.52 -65.08,52.64 -126.21,92.82 -182.24,120.55 -87.72,44.15 -174.88,66.22 -262.04,66.22 -214.5,0 -395.61,-85.46 -542.76,-256.95 -139.23,-163.56 -208.84,-354.29 -208.84,-572.19 0,-245.06 70.18,-448.24 210.54,-608.41 147.15,-166.96 340.71,-250.15 580.68,-250.15 169.22,0 316.94,58.86 442.58,176.01 18.68,22.07 48.11,54.33 88.29,96.22 2.83,3.39 6.23,5.09 9.62,5.09 6.79,0 16.42,-34.53 28.3,-104.7 12.45,-69.62 27.73,-104.71 46.98,-104.71 29.99,0 86.02,8.49 168.09,24.9 91.12,19.81 136.39,37.92 136.39,53.21zm-424.47 693.3c0,-135.83 -40.18,-251.85 -121.11,-349.2 -84.9,-104.7 -193.56,-157.34 -326.56,-157.34 -132.44,0 -242.8,52.07 -331.66,155.64 -84.89,99.61 -127.34,216.2 -127.34,350.9 0,133.57 42.45,249.59 127.34,348.07 88.86,102.44 199.22,153.94 331.66,153.94 129.6,0 237.7,-52.63 324.86,-157.34 82.06,-98.48 122.81,-212.8 122.81,-344.67z"/>
    <path id="1" class="fil3" d="M2954.74 12654.85c0,41.31 -11.88,61.69 -35.09,61.69 -33.96,0 -86.02,-0.57 -156.2,-1.7 -69.62,-1.13 -121.69,-1.7 -155.64,-1.7 -27.74,0 -41.89,-18.11 -41.89,-54.9 0,-53.2 2.27,-133 6.23,-240.53 3.96,-106.97 5.66,-187.9 5.66,-242.24 0,-50.93 -1.7,-127.9 -5.66,-231.47 -3.96,-103.01 -6.23,-181.11 -6.23,-232.62 0,-199.21 -93.38,-298.82 -281.28,-298.82 -61.12,0 -140.36,30.56 -238.84,91.12 -104.7,65.08 -157.33,125.07 -157.33,179.41l0 985.34c0,31.69 -11.32,48.11 -34.53,48.11 -34.52,0 -85.46,-0.57 -153.94,-1.7 -68.48,-1.13 -119.42,-1.7 -153.94,-1.7 -25.47,0 -37.92,-14.72 -37.92,-44.71l0 -800.84c0,-130.17 -7.36,-408.06 -22.07,-831.97 -2.27,-131.86 -11.89,-326.56 -28.87,-584.07 -2.26,-13.02 -3.39,-22.07 -3.39,-26.6 0,-18.68 6.79,-30 19.81,-34.52 18.67,-6.23 81.49,-9.62 187.33,-9.62 23.2,0 58.29,-3.97 104.7,-12.46 46.41,-7.92 80.37,-11.88 101.31,-11.88 14.15,0 21.51,10.75 21.51,31.69 0,103.57 -3.97,260.35 -11.89,468.62 -7.92,208.27 -11.32,365.05 -11.32,468.62 0,25.47 3.96,39.05 13.02,40.18 56.6,-48.11 129.04,-105.83 218.46,-173.75 108.1,-67.92 222.42,-101.87 342.97,-101.87 207.15,0 350.34,61.69 429,185.63 56.04,90.56 84.33,234.31 84.33,431.27 0,33.95 -1.13,87.16 -2.83,158.47 -1.69,71.31 -2.26,123.94 -2.26,157.9 0,70.75 1.13,176.58 3.4,316.94 2.26,140.36 3.39,245.06 3.39,314.68zm1721.67 -832.54c0,81.5 -35.09,136.4 -105.84,164.13 -48.11,17.55 -390.51,50.37 -1028.35,98.48 14.14,97.35 67.91,179.98 161.3,248.46 88.85,65.08 183.93,97.91 285.81,97.91 175.45,0 336.18,-56.03 482.2,-167.52 18.11,-14.72 35.65,-28.87 53.2,-43.02 9.05,0 14.71,1.13 17.54,3.4 2.83,2.26 23.77,40.18 62.26,114.32 39.05,74.71 58.29,114.33 58.29,119.99 0,6.79 -9.05,19.24 -26.6,37.92 -162.43,171.48 -370.7,257.51 -625.39,257.51 -256.38,0 -460.69,-76.41 -613.5,-229.78 -152.25,-152.81 -228.65,-357.12 -228.65,-612.37 0,-228.09 73.01,-426.17 218.46,-595.4 153.94,-176.01 341.84,-263.74 565.4,-263.74 207.71,0 380.89,76.41 520.12,228.65 135.83,148.29 203.75,328.83 203.75,541.06zm-393.91 -100.74c0,-91.68 -36.23,-173.18 -108.67,-243.93 -72.44,-70.74 -153.94,-105.83 -245.06,-105.83 -101.87,0 -191.86,40.75 -271.1,122.24 -79.23,81.5 -118.85,173.19 -118.85,274.5 0,23.2 19.81,34.52 59.43,34.52 164.13,0 359.95,-16.41 588.03,-48.67 63.96,-9.06 96.22,-19.81 96.22,-32.83zm1575.64 -565.96c0,121.68 -8.49,232.61 -24.9,332.22 -3.4,25.47 -14.72,37.92 -33.39,37.92 -23.21,0 -58.3,-2.26 -105.27,-7.36 -47.54,-5.09 -83.2,-7.36 -107.53,-7.36 -139.8,0 -229.22,39.06 -267.71,117.72 -23.2,47.55 -35.09,146.59 -35.09,296.57l0 182.81c0,61.69 2.27,155.64 6.8,281.84 4.52,125.65 6.79,219.6 6.79,281.85 0,29.43 -12.45,44.72 -37.92,44.72 -33.96,0 -85.46,-0.57 -154.51,-1.7 -69.05,-1.13 -121.12,-1.7 -155.07,-1.7 -24.91,0 -37.92,-13.58 -37.92,-41.32 0,-89.42 1.69,-224.68 4.52,-404.66 2.83,-179.98 3.97,-315.81 3.97,-406.36 0,-272.8 -24.91,-492.39 -74.71,-658.22 -2.26,-9.05 -3.4,-15.28 -3.4,-19.8 0,-13.59 7.36,-22.64 21.51,-28.3 40.18,-4.53 97.35,-11.32 170.92,-20.38 118.29,-22.64 173.19,-33.96 164.13,-33.96 17.55,0 29.43,32.83 34.52,98.48 5.66,66.22 15.85,99.05 30,99.05 2.26,0 5.09,-1.14 8.49,-3.4 45.28,-28.86 90.55,-57.73 136.4,-87.16 49.8,-29.99 100.74,-52.07 153.37,-66.78 43.02,-13.02 98.48,-19.81 166.4,-19.81 86.59,0 129.6,11.88 129.6,35.09zm1826.93 756.69c0,219.03 -67.92,409.76 -203.75,572.76 -144.89,172.62 -324.86,258.64 -540.5,258.64 -143.75,0 -269.96,-36.79 -379.76,-109.79 -44.14,-37.92 -88.29,-75.28 -132.43,-112.07 -11.89,3.4 -19.81,36.79 -23.77,100.18 -3.96,62.82 -13.02,94.52 -27.17,94.52l-350.33 0c-13.02,0 -19.81,-7.36 -19.81,-21.51 0,1.13 1.13,-9.06 3.4,-30 18.11,-176.58 27.16,-515.02 27.16,-1014.77 0,-204.31 -9.05,-504.84 -27.16,-900.45 -11.32,-251.85 -16.98,-362.78 -16.98,-331.65 0,-28.87 14.15,-44.71 43.01,-48.11 40.18,-1.13 99.04,-3.39 177.71,-6.22 15.28,-1.14 46.98,-5.1 94.52,-11.32 39.62,-6.23 71.88,-9.62 96.21,-9.62 17.55,0 26.6,12.45 26.6,37.92 0,37.91 -2.83,95.08 -7.92,172.05 -5.66,77.53 -7.92,135.26 -7.92,173.75 0,57.73 -2.83,143.75 -7.36,259.21 -5.09,115.46 -7.36,201.48 -7.36,259.21 0,41.88 7.93,62.82 23.21,62.82 7.92,0 15.84,-6.22 24.9,-18.11 121.11,-151.11 281.85,-226.95 481.63,-226.95 228.65,0 413.72,85.46 555.21,256.95 132.44,161.86 198.66,359.38 198.66,592.56zm-373.54 -15.28c0,-131.3 -41.31,-247.33 -124.51,-347.5 -88.29,-106.97 -196.96,-160.73 -326.56,-160.73 -132.44,0 -242.8,52.63 -331.09,157.33 -85.46,99.61 -127.91,216.2 -127.91,350.9 0,136.96 42.45,255.25 127.91,354.86 88.29,103.57 199.78,155.64 334.48,155.64 130.74,0 239.41,-53.77 326.56,-160.73 80.94,-99.61 121.12,-215.64 121.12,-349.77zm2112.74 7.92c0,230.92 -75.84,428.44 -226.95,592 -155.07,169.23 -346.37,253.55 -575.02,253.55 -230.34,0 -422.2,-83.76 -577.28,-251.85 -151.11,-162.43 -226.95,-359.39 -226.95,-590.3 0,-230.91 75.84,-427.87 226.95,-590.3 156.21,-165.83 348.07,-248.46 577.28,-248.46 227.52,0 418.25,82.63 573.32,248.46 152.25,161.3 228.65,357.12 228.65,586.9zm-349.76 3.4c0,-134.7 -41.32,-249.59 -124.51,-344.67 -86.03,-100.74 -195.26,-151.11 -327.7,-151.11 -133,0 -242.79,49.8 -329.95,149.41 -83.2,96.21 -124.51,211.67 -124.51,346.37 0,132.44 41.88,247.89 126.21,344.67 88.29,103.01 197.52,154.51 328.25,154.51 131.31,0 240.54,-51.5 327.7,-154.51 83.19,-96.78 124.51,-212.23 124.51,-344.67zm1002.32 -1494.71l-1.7 21.51c-23.77,410.89 -35.65,764.05 -35.65,1059.48 0,131.3 2.26,328.26 6.79,590.87 4.53,262.6 6.22,458.99 6.22,589.73 0,25.47 -8.49,37.92 -26.03,37.92l-316.94 0c-19.81,0 -30,-12.45 -30,-37.92 0,-130.74 1.14,-327.13 3.4,-589.73 2.26,-262.61 3.4,-459.57 3.4,-590.87 0,-119.42 -5.66,-298.83 -16.98,-538.23 -11.32,-239.4 -16.98,-417.68 -16.98,-535.97 0,-22.07 11.32,-33.39 34.52,-33.39 19.81,0 49.81,1.7 89.42,5.09 39.62,3.4 69.05,5.1 89.43,5.1 20.37,0 51.5,-1.7 92.25,-5.1 40.75,-3.39 70.74,-5.09 90.55,-5.09 19.81,0 29.43,9.06 28.3,26.6zm1942.95 798.58c0,4.52 -1.69,14.14 -5.09,29.99 -44.14,252.99 -66.22,470.88 -66.22,654.25 0,11.32 14.15,259.22 42.45,744.25l1.7 23.2c1.13,32.26 -13.58,48.11 -44.15,48.11 -30.56,0 -76.4,3.39 -138.09,10.75 -61.13,7.36 -106.97,10.75 -136.97,10.75 -20.94,0 -36.78,-38.48 -48.1,-115.45 -11.32,-76.97 -21.51,-115.46 -31.7,-115.46 -6.79,0 -36.22,21.51 -89.42,64.52 -65.08,52.64 -126.21,92.82 -182.24,120.55 -87.72,44.15 -174.88,66.22 -262.04,66.22 -214.5,0 -395.61,-85.46 -542.76,-256.95 -139.23,-163.56 -208.84,-354.29 -208.84,-572.19 0,-245.06 70.18,-448.24 210.54,-608.41 147.15,-166.96 340.71,-250.15 580.68,-250.15 169.22,0 316.94,58.86 442.58,176.01 18.68,22.07 48.11,54.33 88.29,96.22 2.83,3.39 6.23,5.09 9.62,5.09 6.79,0 16.42,-34.53 28.3,-104.7 12.45,-69.62 27.73,-104.71 46.98,-104.71 29.99,0 86.02,8.49 168.09,24.9 91.12,19.81 136.39,37.92 136.39,53.21zm-424.47 693.3c0,-135.83 -40.18,-251.85 -121.11,-349.2 -84.9,-104.7 -193.56,-157.34 -326.56,-157.34 -132.44,0 -242.8,52.07 -331.66,155.64 -84.89,99.61 -127.34,216.2 -127.34,350.9 0,133.57 42.45,249.59 127.34,348.07 88.86,102.44 199.22,153.94 331.66,153.94 129.6,0 237.7,-52.63 324.86,-157.34 82.06,-98.48 122.81,-212.8 122.81,-344.67zm1640.73 -749.9c0,121.68 -8.49,232.61 -24.9,332.22 -3.4,25.47 -14.72,37.92 -33.39,37.92 -23.21,0 -58.3,-2.26 -105.27,-7.36 -47.54,-5.09 -83.2,-7.36 -107.53,-7.36 -139.8,0 -229.22,39.06 -267.71,117.72 -23.2,47.55 -35.09,146.59 -35.09,296.57l0 182.81c0,61.69 2.27,155.64 6.8,281.84 4.52,125.65 6.79,219.6 6.79,281.85 0,29.43 -12.45,44.72 -37.92,44.72 -33.96,0 -85.46,-0.57 -154.51,-1.7 -69.05,-1.13 -121.12,-1.7 -155.07,-1.7 -24.91,0 -37.92,-13.58 -37.92,-41.32 0,-89.42 1.69,-224.68 4.52,-404.66 2.83,-179.98 3.97,-315.81 3.97,-406.36 0,-272.8 -24.91,-492.39 -74.71,-658.22 -2.26,-9.05 -3.4,-15.28 -3.4,-19.8 0,-13.59 7.36,-22.64 21.51,-28.3 40.18,-4.53 97.35,-11.32 170.92,-20.38 118.29,-22.64 173.19,-33.96 164.13,-33.96 17.55,0 29.43,32.83 34.52,98.48 5.66,66.22 15.85,99.05 30,99.05 2.26,0 5.09,-1.14 8.49,-3.4 45.28,-28.86 90.55,-57.73 136.4,-87.16 49.8,-29.99 100.74,-52.07 153.37,-66.78 43.02,-13.02 98.48,-19.81 166.4,-19.81 86.59,0 129.6,11.88 129.6,35.09zm614.63 -425.61c0,135.84 -75.84,203.75 -227.51,203.75 -153.95,0 -230.92,-67.91 -230.92,-203.75 0,-60.55 23.77,-110.92 71.31,-150.54 44.15,-37.92 97.35,-56.6 159.61,-56.6 61.69,0 115.45,19.24 160.16,57.73 44.71,39.05 67.35,88.86 67.35,149.41zm-13.58 449.38c0,84.89 -5.09,213.37 -15.28,385.42 -10.19,172.05 -15.28,301.09 -15.28,387.12 0,80.93 1.7,201.48 5.09,362.22 3.4,160.73 5.1,281.28 5.1,360.51 0,23.21 -10.19,35.09 -30,35.09l-323.73 0c-23.21,0 -35.09,-22.63 -35.09,-67.91 0,-76.41 2.26,-191.3 6.22,-344.11 3.97,-153.37 5.66,-268.26 5.66,-345.8 0,-86.03 -6.22,-215.63 -18.67,-388.25 -12.45,-172.05 -18.68,-301.66 -18.68,-387.69 0,-18.67 11.32,-28.29 34.52,-28.29 19.81,0 50.37,2.83 91.69,8.48 41.32,5.1 72.44,7.93 93.38,7.93 20.94,0 52.07,-2.83 93.39,-7.93 41.31,-5.65 72.44,-8.48 93.38,-8.48 18.68,0 28.3,10.75 28.3,31.69zm1942.95 32.83c0,4.52 -1.69,14.14 -5.09,29.99 -44.14,252.99 -66.22,470.88 -66.22,654.25 0,11.32 14.15,259.22 42.45,744.25l1.7 23.2c1.13,32.26 -13.58,48.11 -44.15,48.11 -30.56,0 -76.4,3.39 -138.09,10.75 -61.13,7.36 -106.97,10.75 -136.97,10.75 -20.94,0 -36.78,-38.48 -48.1,-115.45 -11.32,-76.97 -21.51,-115.46 -31.7,-115.46 -6.79,0 -36.22,21.51 -89.42,64.52 -65.08,52.64 -126.21,92.82 -182.24,120.55 -87.72,44.15 -174.88,66.22 -262.04,66.22 -214.5,0 -395.61,-85.46 -542.76,-256.95 -139.23,-163.56 -208.84,-354.29 -208.84,-572.19 0,-245.06 70.18,-448.24 210.54,-608.41 147.15,-166.96 340.71,-250.15 580.68,-250.15 169.22,0 316.94,58.86 442.58,176.01 18.68,22.07 48.11,54.33 88.29,96.22 2.83,3.39 6.23,5.09 9.62,5.09 6.79,0 16.42,-34.53 28.3,-104.7 12.45,-69.62 27.73,-104.71 46.98,-104.71 29.99,0 86.02,8.49 168.09,24.9 91.12,19.81 136.39,37.92 136.39,53.21zm-424.47 693.3c0,-135.83 -40.18,-251.85 -121.11,-349.2 -84.9,-104.7 -193.56,-157.34 -326.56,-157.34 -132.44,0 -242.8,52.07 -331.66,155.64 -84.89,99.61 -127.34,216.2 -127.34,350.9 0,133.57 42.45,249.59 127.34,348.07 88.86,102.44 199.22,153.94 331.66,153.94 129.6,0 237.7,-52.63 324.86,-157.34 82.06,-98.48 122.81,-212.8 122.81,-344.67z"/>
   </g>
   <path class="fil7" d="M14373.28 9102.52c0,72.34 -3.15,180.87 -9.47,324.99 -6.32,144.41 -9.47,252.35 -9.47,324.13 0,221.35 4.88,389.01 14.64,502.7l0.86 10.91c0.57,5.74 -7.18,9.19 -22.68,10.91 -10.91,1.15 -26.13,1.15 -45.65,0 -23.83,-1.72 -34.74,-2.58 -33.02,-2.58 -8.32,0 -20.95,0.86 -37.32,2.58 -16.08,1.72 -28.71,2.59 -37.03,2.59 -8.04,0 -12.64,-19.81 -14.07,-59.15 -1.44,-39.33 -3.73,-59.14 -6.6,-59.71 -3.45,1.72 -7.47,5.45 -12.64,10.91 -76.65,83.54 -165.08,125.17 -264.7,125.17 -113.11,0 -206.13,-43.06 -279.05,-129.48 -68.91,-81.25 -103.36,-179.43 -103.36,-294.27 0,-119.43 34.74,-219.92 104.22,-301.16 72.92,-85.27 167.95,-127.76 285.37,-127.76 70.62,0 132.35,20.67 184.89,62.3 24.11,20.96 48.23,41.91 71.77,63.45 4.31,-1.73 6.61,-5.75 6.61,-11.77l0 -272.74c0,-18.38 -0.87,-46.51 -2.59,-84.12 -1.72,-37.61 -2.58,-65.75 -2.58,-84.98 0,-13.5 4.59,-20.1 13.49,-20.1 20.67,0 51.68,-1.72 92.45,-5.17 41.05,-3.44 71.48,-5.17 91.58,-5.17 9.47,0 14.35,5.75 14.35,17.52zm-210.15 764.82c0,-67.18 -20.67,-126.32 -62.3,-177.14 -44.21,-54.26 -99.05,-81.53 -164.79,-81.53 -68.9,0 -125.75,26.98 -170.54,80.67 -42.77,50.53 -64.02,110.82 -64.02,181.44 0,67.18 22.11,125.75 66.32,175.71 45.65,52.53 101.63,78.95 168.24,78.95 67.47,0 122.87,-26.7 166.51,-79.82 40.48,-49.95 60.58,-109.38 60.58,-178.28zm1071.73 -43.93c0,41.34 -17.8,69.19 -53.69,83.26 -24.4,8.9 -198.09,25.55 -521.65,49.95 7.18,49.38 34.45,91.3 81.82,126.04 45.08,33.02 93.31,49.67 144.99,49.67 89,0 170.53,-28.43 244.6,-84.98 9.19,-7.47 18.09,-14.65 26.99,-21.82 4.59,0 7.46,0.57 8.9,1.72 1.43,1.15 12.06,20.38 31.58,57.99 19.81,37.9 29.57,58 29.57,60.87 0,3.44 -4.59,9.76 -13.49,19.23 -82.4,86.99 -188.05,130.63 -317.24,130.63 -130.06,0 -233.7,-38.76 -311.21,-116.56 -77.23,-77.52 -115.99,-181.16 -115.99,-310.64 0,-115.7 37.03,-216.18 110.82,-302.02 78.09,-89.29 173.4,-133.79 286.81,-133.79 105.36,0 193.21,38.76 263.84,115.99 68.9,75.22 103.35,166.8 103.35,274.46zm-199.82 -51.1c0,-46.51 -18.37,-87.85 -55.12,-123.74 -36.75,-35.89 -78.09,-53.69 -124.31,-53.69 -51.68,0 -97.33,20.68 -137.52,62.02 -40.19,41.34 -60.29,87.85 -60.29,139.24 0,11.77 10.05,17.51 30.14,17.51 83.26,0 182.6,-8.32 298.3,-24.69 32.44,-4.59 48.8,-10.05 48.8,-16.65z"/>
   <path class="fil7" d="M433.19 10133.77l-0.86 10.91c-12.05,208.43 -18.08,387.58 -18.08,537.44 0,66.61 1.14,166.52 3.44,299.73 2.3,133.21 3.16,232.84 3.16,299.15 0,12.92 -4.31,19.24 -13.21,19.24l-160.77 0c-10.05,0 -15.22,-6.32 -15.22,-19.24 0,-66.31 0.58,-165.94 1.73,-299.15 1.14,-133.21 1.72,-233.12 1.72,-299.73 0,-60.57 -2.87,-151.58 -8.61,-273.02 -5.75,-121.44 -8.62,-211.88 -8.62,-271.88 0,-11.2 5.75,-16.94 17.52,-16.94 10.04,0 25.26,0.86 45.36,2.58 20.09,1.73 35.02,2.59 45.36,2.59 10.33,0 26.12,-0.86 46.79,-2.59 20.68,-1.72 35.89,-2.58 45.94,-2.58 10.05,0 14.93,4.59 14.35,13.49zm985.6 405.09c0,2.3 -0.86,7.18 -2.58,15.22 -22.4,128.33 -33.59,238.86 -33.59,331.88 0,5.74 7.17,131.49 21.53,377.53l0.86 11.77c0.57,16.37 -6.89,24.41 -22.39,24.41 -15.51,0 -38.76,1.72 -70.06,5.45 -31,3.73 -54.26,5.46 -69.47,5.46 -10.63,0 -18.66,-19.53 -24.41,-58.57 -5.74,-39.05 -10.91,-58.57 -16.07,-58.57 -3.45,0 -18.38,10.91 -45.36,32.73 -33.02,26.7 -64.03,47.08 -92.45,61.15 -44.5,22.39 -88.71,33.59 -132.92,33.59 -108.81,0 -200.68,-43.35 -275.33,-130.34 -70.62,-82.97 -105.94,-179.72 -105.94,-290.25 0,-124.32 35.6,-227.38 106.8,-308.63 74.65,-84.69 172.83,-126.9 294.56,-126.9 85.84,0 160.78,29.86 224.51,89.29 9.48,11.2 24.4,27.56 44.79,48.81 1.43,1.72 3.16,2.58 4.88,2.58 3.44,0 8.32,-17.51 14.35,-53.11 6.32,-35.32 14.07,-53.12 23.83,-53.12 15.22,0 43.64,4.31 85.27,12.64 46.22,10.05 69.19,19.23 69.19,26.98zm-215.32 351.7c0,-68.91 -20.39,-127.76 -61.44,-177.14 -43.06,-53.11 -98.19,-79.81 -165.65,-79.81 -67.18,0 -123.17,26.41 -168.24,78.95 -43.07,50.53 -64.6,109.67 -64.6,178 0,67.75 21.53,126.6 64.6,176.56 45.07,51.96 101.06,78.09 168.24,78.09 65.74,0 120.58,-26.7 164.79,-79.81 41.63,-49.96 62.3,-107.95 62.3,-174.84z"/>
   <polygon class="fil1" points="600.05,5903.91 16580.89,5903.91 16580.89,6221.41 600.05,6221.41 "/>
  </g>
 </g>
</svg>
